<svg width="current" height="current" viewBox="0 0 128 128" fill="none" xmlns="http://www.w3.org/2000/svg">
<g clip-path="url(#clip0_491_91)">
<path d="M3.53553 117.536L10.4645 124.464C12.4171 126.417 15.5829 126.417 17.5355 124.464L124.464 17.5355C126.417 15.5829 126.417 12.4171 124.464 10.4645L117.536 3.53553C115.583 1.58291 112.417 1.58292 110.464 3.53554L3.53553 110.464C1.58291 112.417 1.58291 115.583 3.53553 117.536Z" fill="current"/>
<path d="M124.464 117.536L117.536 124.464C115.583 126.417 112.417 126.417 110.464 124.464L3.53553 17.5355C1.58291 15.5829 1.58291 12.4171 3.53553 10.4645L10.4645 3.53553C12.4171 1.58291 15.5829 1.58292 17.5355 3.53554L124.464 110.464C126.417 112.417 126.417 115.583 124.464 117.536Z" fill="current"/>
</g>
<defs>
<clipPath id="clip0_491_91">
<rect width="128" height="128" fill="white"/>
</clipPath>
</defs>
</svg>
