<svg width="current" height="current" viewBox="0 0 412 68" fill="none" xmlns="http://www.w3.org/2000/svg">
<path d="M69.3081 0.550895L84.3774 24.2562H99.0441L84.4654 0.550895H69.3081Z" fill="#024EA2"/>
<path d="M41.5566 43.493L53.4153 67.209H68.578L54.7646 43.493H41.5566Z" fill="#024EA2"/>
<path d="M52.1472 0.579528L37.7618 29.3515H33.5738L47.9885 0.579528H34.7658L20.3872 29.3515H16.2205L30.6178 0.579528H17.4232L0.98584 34.4115L17.4018 67.2942H30.5978L16.2098 38.5369H20.3792L34.7658 67.2942H47.9618L33.5738 38.5369H83.2992L70.8805 67.2942H84.5712L97.0045 38.5369H97.0112L99.0178 33.9275L100.986 29.3515H51.9365L66.3352 0.579528H52.1472Z" fill="#024EA2"/>
<path d="M157.397 45.4311V51.3671H140.276V66.8831H134.072V51.3671H116.913V45.4311H157.397ZM153.461 23.0791V28.7377H140.682C140.682 29.4617 141.078 30.2551 141.868 31.1111C142.68 31.9604 143.79 32.7697 145.198 33.5257C146.658 34.2871 148.26 34.9057 150.006 35.3791C151.941 35.8497 153.896 36.1084 155.866 36.1391C155.133 36.9951 154.472 37.9297 153.881 38.9377C153.32 39.9191 152.885 40.8524 152.576 41.7364C149.512 41.3257 146.378 40.2817 143.174 38.6071C140.08 36.9951 138.085 35.4257 137.185 33.9084C136.368 35.4577 134.473 37.0897 131.492 38.7951C128.373 40.5964 125.182 41.7884 121.92 42.3537C121.557 41.5297 121.033 40.6177 120.361 39.6044C119.629 38.4964 118.913 37.5777 118.21 36.8524C119.982 36.8524 121.793 36.5657 123.648 35.9977C125.365 35.4577 126.953 34.7644 128.414 33.9084C129.82 33.0537 130.944 32.1724 131.789 31.2524C132.658 30.3031 133.097 29.4617 133.097 28.7377H120.53V23.0791H153.461Z" fill="#024EA2"/>
<path d="M194.171 49.814V66.762H187.968V55.6606H161.572V49.814H194.171ZM194.463 21.526C194.689 21.6526 194.703 21.9833 194.504 22.5233C194.393 22.87 194.324 23.1433 194.293 23.3273C194.213 23.71 194.171 24.0873 194.171 24.466V47.1006H187.968V21.286H191.699C193.232 21.286 194.155 21.3686 194.463 21.526ZM174.087 22.7606C174.283 22.918 174.256 23.3166 174.004 23.9473C173.892 24.2926 173.805 24.5753 173.748 24.802C173.668 25.1486 173.621 25.4953 173.621 25.842C173.621 28.3766 174.467 31.0793 176.153 33.9553C178.092 37.31 180.664 39.7926 183.869 41.4046C183.053 42.1033 182.252 42.8953 181.467 43.778C180.707 44.6326 180.004 45.5193 179.359 46.434C177.532 45.2046 175.799 43.6193 174.173 41.6873C172.512 39.698 171.416 37.878 170.884 36.234C170.349 38.134 169.283 40.1233 167.677 42.2126C165.936 44.454 163.983 46.2286 161.819 47.5246C161.228 46.8006 160.48 45.9926 159.583 45.106C158.683 44.218 157.828 43.478 157.011 42.874C160.467 41.01 163.067 38.5433 164.811 35.4726C166.777 31.9993 167.76 27.6313 167.76 22.3766H171.599C172.977 22.3766 173.805 22.5086 174.087 22.7606Z" fill="#024EA2"/>
<path d="M203.133 55.4037C205.268 55.373 207.154 55.2877 208.782 55.1677V50.8477C206.616 50.437 204.908 49.677 203.636 48.569C202.12 47.241 201.362 45.4984 201.362 43.3464C201.362 40.601 202.54 38.5117 204.908 37.085C206.841 35.9824 209.204 35.4317 211.986 35.4317C214.74 35.4317 217.073 35.9824 218.985 37.085C221.377 38.5117 222.569 40.601 222.569 43.3464C222.569 45.5357 221.794 47.289 220.25 48.6157C218.93 49.7557 217.189 50.501 215.022 50.8477V54.9264C217.073 54.7677 218.985 54.6104 220.758 54.453C222.98 54.2957 224.609 54.1544 225.649 54.029L226.408 58.2957L226.577 59.1517C224.553 59.309 222.166 59.497 219.412 59.717C217.777 59.8437 215.276 60.017 211.904 60.2384L203.552 60.905C202.99 60.905 202.458 60.9517 201.953 61.045C201.641 61.109 201.276 61.2037 200.854 61.329C200.264 61.4864 199.882 61.5344 199.717 61.4717C199.461 61.3757 199.236 61.045 199.044 60.4797L198.114 55.497C199.917 55.497 201.585 55.4664 203.133 55.4037ZM234.418 21.5264C234.645 21.653 234.658 21.9837 234.461 22.5237C234.345 22.8704 234.278 23.1437 234.252 23.3264C234.165 23.709 234.125 24.0877 234.125 24.4664V66.8357H227.885V21.285H231.637C233.182 21.285 234.109 21.369 234.418 21.5264ZM218.904 27.3637H205.621V22.0037H218.904V27.3637ZM208.57 40.8784C207.893 41.4517 207.557 42.2757 207.557 43.3464C207.557 44.3597 207.893 45.153 208.57 45.7237C209.33 46.3544 210.468 46.6744 211.986 46.6744C213.478 46.6744 214.588 46.3544 215.32 45.7237C216.022 45.153 216.372 44.3597 216.372 43.3464C216.372 42.2757 216.022 41.4517 215.32 40.8784C214.588 40.281 213.478 39.9824 211.986 39.9824C210.444 39.9824 209.301 40.281 208.57 40.8784ZM224.889 34.429H198.833V29.0224H224.889V34.429Z" fill="#024EA2"/>
<path d="M272.615 21.6213C272.868 21.7786 272.868 22.1933 272.615 22.8546C272.472 23.3013 272.359 23.6479 272.276 23.8986C272.192 24.3399 272.152 24.8026 272.152 25.2746V41.1679H277.505V47.3359H272.152V66.8359H265.949V21.2906H269.427C271.187 21.2906 272.249 21.3999 272.615 21.6213ZM253.368 24.5133C253.592 24.7386 253.535 25.2266 253.197 25.9879C253.055 26.3039 252.959 26.5386 252.901 26.6973C252.792 26.9813 252.719 27.2693 252.692 27.5519C252.523 28.2506 252.413 29.1959 252.356 30.3973C252.327 31.4733 252.309 32.9119 252.309 34.7119C252.309 38.0359 253.379 41.8186 255.517 46.0546C257.765 50.4853 260.327 53.5666 263.193 55.3039C262.375 55.9386 261.521 56.7013 260.62 57.5879C259.633 58.5639 258.863 59.4293 258.299 60.1906C256.417 58.6733 254.489 56.1759 252.523 52.6959C250.665 49.4093 249.559 46.6853 249.191 44.5333C248.573 47.0319 247.561 49.6613 246.155 52.4173C244.415 55.8279 242.484 58.4373 240.377 60.2386C239.733 59.5453 238.959 58.8053 238.059 58.0119C237.159 57.1893 236.344 56.4893 235.613 55.9239C239.183 52.9826 241.893 48.8999 243.751 43.6826C245.719 38.2453 246.701 31.6999 246.701 24.0399H250.247C251.991 24.0399 253.028 24.1986 253.368 24.5133Z" fill="#024EA2"/>
<path d="M348.479 1.12907C348.854 1.35973 348.854 1.9584 348.479 2.92507C348.27 3.56373 348.105 4.06773 347.981 4.43573C347.854 5.08107 347.797 5.74773 347.797 6.43573V29.5371H355.733V38.5011H347.797V66.8411H338.538V0.646402H343.729C346.359 0.646402 347.934 0.809068 348.479 1.12907ZM304.466 50.5691C307.551 50.4811 310.382 50.3437 312.965 50.1557V43.5357C309.637 42.9424 306.989 41.8344 305.029 40.2224C302.653 38.2504 301.463 35.7197 301.463 32.6384C301.463 28.6864 303.213 25.6784 306.719 23.6051C309.587 21.9984 313.091 21.1957 317.222 21.1957C321.305 21.1957 324.785 21.9984 327.662 23.6051C331.202 25.6784 332.977 28.6864 332.977 32.6384C332.977 35.6304 331.871 38.0664 329.662 39.9504C327.825 41.5611 325.347 42.6904 322.225 43.3304V49.8144C324.47 49.6717 327.013 49.4677 329.847 49.1891C331.893 48.9624 334.018 48.7317 336.229 48.5011L337.603 56.0224C334.89 56.2491 331.517 56.5224 327.473 56.8411C324.974 57.0304 321.179 57.3037 316.09 57.6757L304.902 58.4997C304.07 58.4997 303.281 58.5957 302.525 58.7731C302.11 58.8691 301.569 59.0037 300.902 59.1931C300.065 59.4197 299.507 59.4877 299.214 59.3984C298.838 59.2571 298.505 58.7731 298.214 57.9437L296.839 50.6424C299.087 50.6424 301.629 50.6157 304.466 50.5691ZM327.537 9.4704H307.846V1.67973H327.537V9.4704ZM312.154 29.1264C311.154 29.9504 310.655 31.1211 310.655 32.6384C310.655 34.0197 311.154 35.1011 312.154 35.8824C313.322 36.8011 315.011 37.2637 317.222 37.2637C319.385 37.2637 321.033 36.8011 322.162 35.8824C323.201 35.1011 323.721 34.0197 323.721 32.6384C323.721 31.0797 323.201 29.9091 322.162 29.1264C321.079 28.2504 319.431 27.8157 317.222 27.8157C314.967 27.8157 313.281 28.2504 312.154 29.1264ZM336.351 19.7477H297.774V11.8851H336.351V19.7477Z" fill="#024EA2"/>
<path d="M373.145 44.4963C373.481 44.7749 373.502 45.3723 373.21 46.2923C373.039 46.7963 372.935 47.1896 372.893 47.4629C372.814 47.9229 372.77 48.3803 372.77 48.8429V56.4949H411.909V65.1256H363.575V44.0136H368.982C371.255 44.0136 372.646 44.1763 373.145 44.4963ZM411.73 1.06161C412.063 1.24561 412.063 1.77495 411.73 2.64561C411.605 3.10295 411.499 3.47495 411.415 3.74828C411.331 4.20961 411.291 4.69228 411.291 5.19628V49.3989H402.098V0.645613H407.63C409.906 0.645613 411.274 0.782947 411.73 1.06161ZM381.517 2.85095C381.769 3.12961 381.725 3.74828 381.391 4.71362C381.223 5.26428 381.097 5.70028 381.015 6.02161C380.893 6.57761 380.83 7.12961 380.83 7.68028C380.83 11.8163 382.078 16.1149 384.577 20.5776C387.417 25.6789 391.23 29.4256 396.022 31.8136C394.859 32.7803 393.669 33.9043 392.458 35.1949C391.335 36.4336 390.287 37.7669 389.333 39.1896C386.538 37.2629 383.978 34.8269 381.642 31.8829C379.139 28.7536 377.511 25.8149 376.763 23.0589C376.013 26.1829 374.538 29.2629 372.323 32.2976C369.95 35.5149 366.949 38.4136 363.323 40.9843C362.447 39.8816 361.339 38.6856 360.009 37.4003C358.715 36.1136 357.446 35.0123 356.195 34.0869C361.366 31.2843 365.222 27.5416 367.765 22.8549C370.677 17.5643 372.137 10.7136 372.137 2.30028H377.827C379.869 2.30028 381.097 2.48295 381.517 2.85095Z" fill="#024EA2"/>
</svg>
