<svg width="current" height="current" viewBox="0 0 128 128" fill="none" xmlns="http://www.w3.org/2000/svg">
<g clip-path="url(#clip0_376_95)">
<path fill-rule="evenodd" clip-rule="evenodd" d="M10 0C4.47715 0 0 4.47715 0 10V118C0 123.523 4.47715 128 10 128H118C123.523 128 128 123.523 128 118V10C128 4.47715 123.523 0 118 0H10ZM20 17C18.3431 17 17 18.3431 17 20V108C17 109.657 18.3431 111 20 111H108C109.657 111 111 109.657 111 108V20C111 18.3431 109.657 17 108 17H20Z" fill="current"/>
<path d="M21.0523 67.7806L51.2066 98L107.947 41.1362C109.351 39.7301 109.351 37.4504 107.947 36.0443L102.969 31.0546C101.566 29.6485 99.2909 29.6485 97.8875 31.0546L51.2066 77.8367L31.1122 57.6989C29.7092 56.2928 27.4343 56.2928 26.0312 57.6989L21.0523 62.6886C19.6492 64.0948 19.6492 66.3745 21.0523 67.7806Z" fill="current"/>
</g>
<defs>
<clipPath id="clip0_376_95">
<rect width="128" height="128" fill="white"/>
</clipPath>
</defs>
</svg>
