<svg width="current" height="current" viewBox="0 0 128 128" fill="none" xmlns="http://www.w3.org/2000/svg">
<g clip-path="url(#clip0_338_164)">
<path d="M17 54H0V0H54V17H31L54 40L40 54L17 31V54Z" fill="current"/>
<path d="M54 111L54 128L0 128L-2.36041e-06 74L17 74L17 97L40 74L54 88L31 111L54 111Z" fill="current"/>
<path d="M111 74L128 74L128 128L74 128L74 111L97 111L74 88L88 74L111 97L111 74Z" fill="current"/>
<path d="M74 17L74 -2.36041e-06L128 0L128 54L111 54L111 31L88 54L74 40L97 17L74 17Z" fill="current"/>
</g>
<defs>
<clipPath id="clip0_338_164">
<rect width="128" height="128" fill="white"/>
</clipPath>
</defs>
</svg>
